<svg width="262" height="76" viewBox="0 0 262 76" fill="none" xmlns="http://www.w3.org/2000/svg">
<path d="M114.485 16.6483H111.025V0H124.971V16.6483H121.62V3.02696H114.485V16.6483Z" fill="white"/>
<path d="M134.267 16.9724C132.43 16.9724 130.808 16.4319 129.619 15.2427C128.321 14.0536 127.673 12.5401 127.673 10.7023C127.673 8.97262 128.213 7.45915 129.403 6.26999C130.592 5.08082 131.997 4.43219 133.835 4.43219C135.565 4.43219 136.97 5.08082 137.943 6.26999C139.024 7.45915 139.456 8.97262 139.456 10.7023V11.5672H130.916C131.132 12.3239 131.565 12.9725 132.213 13.405C132.97 13.8374 133.835 14.0536 134.916 14.0536C136.213 14.0536 137.51 13.7293 138.7 12.9725V15.6752C137.727 16.54 136.213 16.9724 134.267 16.9724ZM131.024 9.51315H136.213C136.213 8.86452 135.889 8.21589 135.456 7.78346C135.024 7.35104 134.375 7.13483 133.727 7.13483C132.97 7.13483 132.321 7.35104 131.889 7.78346C131.348 8.21589 131.132 8.75641 131.024 9.51315Z" fill="white"/>
<path d="M149.294 4.43219C150.915 4.43219 152.213 5.08082 153.294 6.26999C154.375 7.45915 154.915 8.97262 154.915 10.7023C154.915 12.432 154.375 13.9455 153.294 15.1346C152.213 16.3238 150.915 16.9724 149.294 16.9724C147.672 16.9724 146.375 16.4319 145.402 15.2427V21.4048H142.051V4.75651H145.402V6.16188C146.375 5.08082 147.672 4.43219 149.294 4.43219ZM148.429 7.35104C147.78 7.35104 147.24 7.56725 146.699 7.89157C146.159 8.21589 145.726 8.64831 145.51 9.18884V12.3239C145.834 12.8644 146.159 13.2968 146.699 13.6212C147.24 13.9455 147.78 14.0536 148.429 14.0536C149.402 14.0536 150.159 13.7293 150.699 13.0806C151.348 12.432 151.564 11.6753 151.564 10.7023C151.564 9.72936 151.24 8.97262 150.699 8.32399C150.159 7.67536 149.294 7.35104 148.429 7.35104Z" fill="white"/>
<path d="M163.24 16.9724C161.402 16.9724 159.781 16.4319 158.591 15.2427C157.294 14.0536 156.646 12.5401 156.646 10.7023C156.646 8.97262 157.186 7.45915 158.375 6.26999C159.564 5.08082 160.97 4.43219 162.808 4.43219C164.537 4.43219 165.943 5.08082 166.916 6.26999C167.997 7.45915 168.429 8.97262 168.429 10.7023V11.5672H159.889C160.105 12.3239 160.537 12.9725 161.186 13.405C161.943 13.8374 162.808 14.0536 163.889 14.0536C165.186 14.0536 166.483 13.7293 167.672 12.9725V15.6752C166.699 16.54 165.186 16.9724 163.24 16.9724ZM159.889 9.51315H165.078C165.078 8.86452 164.753 8.21589 164.321 7.78346C163.889 7.35104 163.24 7.13483 162.591 7.13483C161.835 7.13483 161.186 7.35104 160.754 7.78346C160.321 8.21589 159.997 8.75641 159.889 9.51315Z" fill="white"/>
<path d="M173.077 19.6753H169.834V13.8376H171.347C172.212 12.4323 172.753 10.162 172.753 7.13509V4.86487H182.699V13.9457H184.644V19.7834H181.617V16.7565H173.077V19.6753ZM174.807 13.8376H179.563V7.56751H175.888C175.888 10.0539 175.455 12.1079 174.807 13.8376Z" fill="white"/>
<path d="M189.618 10.7023C189.618 11.6753 189.942 12.432 190.591 13.0806C191.239 13.7293 191.996 14.0536 192.969 14.0536C193.942 14.0536 194.699 13.7293 195.347 13.0806C195.996 12.432 196.32 11.6753 196.32 10.7023C196.32 9.72936 195.996 8.97262 195.347 8.32399C194.699 7.67536 193.942 7.35104 192.969 7.35104C191.996 7.35104 191.239 7.67536 190.591 8.32399C189.942 8.97262 189.618 9.72936 189.618 10.7023ZM186.267 10.7023C186.267 8.97262 186.915 7.45915 188.104 6.26999C189.294 5.08082 190.915 4.43219 192.861 4.43219C194.807 4.43219 196.32 5.08082 197.618 6.26999C198.807 7.45915 199.455 8.97262 199.455 10.7023C199.455 12.432 198.807 13.9455 197.618 15.1346C196.429 16.3238 194.807 16.9724 192.861 16.9724C190.915 16.9724 189.402 16.3238 188.104 15.1346C186.915 13.9455 186.267 12.432 186.267 10.7023Z" fill="white"/>
<path d="M208.968 16.6486H201.941V4.75696H208.644C209.833 4.75696 210.806 5.08127 211.455 5.6218C212.103 6.16233 212.428 6.91907 212.428 7.78391C212.428 8.97308 211.995 9.83792 211.022 10.2703C212.536 10.8109 213.293 11.7838 213.293 13.2973C213.293 14.2702 212.86 15.1351 212.103 15.6756C211.347 16.3243 210.374 16.6486 208.968 16.6486ZM205.293 11.6757V14.3784H208.103C209.293 14.3784 209.833 13.9459 209.833 13.0811C209.833 12.2162 209.293 11.7838 208.103 11.7838H205.293V11.6757ZM205.293 7.13528V9.5136H207.671C208.752 9.5136 209.293 9.08118 209.293 8.32444C209.293 7.5677 208.644 7.13528 207.563 7.13528H205.293Z" fill="white"/>
<path d="M231.238 16.6486H227.886V4.75696H231.238V16.6486ZM221.833 16.6486H215.887V4.75696H219.238V8.21634H221.616C223.13 8.21634 224.319 8.64876 225.184 9.4055C226.049 10.1622 226.481 11.1352 226.481 12.4325C226.481 13.6216 226.049 14.5946 225.292 15.4594C224.427 16.2161 223.346 16.6486 221.833 16.6486ZM219.238 10.7028V14.054H221.184C221.833 14.054 222.373 13.9459 222.697 13.6216C223.022 13.2973 223.238 12.973 223.238 12.4325C223.238 11.8919 223.022 11.4595 222.697 11.2433C222.373 10.919 221.833 10.8109 221.184 10.8109H219.238V10.7028Z" fill="white"/>
<path d="M240.427 16.9724C238.59 16.9724 236.968 16.4319 235.779 15.2427C234.482 14.0536 233.833 12.5401 233.833 10.7023C233.833 8.97262 234.374 7.45915 235.563 6.26999C236.752 5.08082 238.157 4.43219 239.995 4.43219C241.725 4.43219 243.13 5.08082 244.103 6.26999C245.184 7.45915 245.616 8.97262 245.616 10.7023V11.5672H237.076C237.292 12.3239 237.725 12.9725 238.373 13.405C239.13 13.8374 239.995 14.0536 241.076 14.0536C242.373 14.0536 243.671 13.7293 244.86 12.9725V15.6752C243.887 16.54 242.373 16.9724 240.427 16.9724ZM237.076 9.51315H242.265C242.265 8.86452 241.941 8.21589 241.508 7.78346C241.076 7.35104 240.427 7.13483 239.779 7.13483C239.022 7.13483 238.373 7.35104 237.941 7.78346C237.509 8.21589 237.184 8.75641 237.076 9.51315Z" fill="white"/>
<path d="M113.944 44.7555H110.809V32.8639H114.16V39.8908L119.565 32.8639H122.7V44.7555H119.349V37.7286L113.944 44.7555Z" fill="white"/>
<path d="M129.295 44.7555H125.943V32.8639H129.295V37.2962H134.159V32.8639H137.511V44.7555H134.159V40.107H129.295V44.7555Z" fill="white"/>
<path d="M143.457 44.7555H139.457L144.538 38.3773L139.998 32.8639H143.781L147.349 37.2962V32.8639H150.7V37.2962L154.267 32.8639H158.051L153.511 38.3773L158.7 44.7555H154.592L150.7 39.6745V44.7555H147.349V39.6745L143.457 44.7555Z" fill="white"/>
<path d="M165.402 45.0803C163.564 45.0803 161.943 44.5398 160.754 43.3507C159.456 42.1615 158.808 40.648 158.808 38.8102C158.808 37.0805 159.348 35.5671 160.537 34.3779C161.726 33.1887 163.132 32.5401 164.97 32.5401C166.699 32.5401 168.105 33.1887 169.078 34.3779C170.159 35.5671 170.591 37.0805 170.591 38.8102V39.6751H162.159C162.375 40.4318 162.808 41.0804 163.456 41.5129C164.213 41.9453 165.078 42.1615 166.159 42.1615C167.456 42.1615 168.753 41.8372 169.942 41.0804V43.7831C168.861 44.6479 167.348 45.0803 165.402 45.0803ZM162.159 37.6211H167.348C167.348 36.9724 167.024 36.3238 166.591 35.8914C166.159 35.459 165.51 35.2427 164.862 35.2427C164.105 35.2427 163.456 35.459 163.024 35.8914C162.483 36.3238 162.267 36.8643 162.159 37.6211Z" fill="white"/>
<path d="M176.537 44.7555H173.186V32.8639H176.537V37.2962H181.402V32.8639H184.753V44.7555H181.402V40.107H176.537V44.7555Z" fill="white"/>
<path d="M193.942 45.0803C192.104 45.0803 190.483 44.5398 189.294 43.3507C187.996 42.1615 187.348 40.648 187.348 38.8102C187.348 37.0805 187.888 35.5671 189.077 34.3779C190.266 33.1887 191.672 32.5401 193.51 32.5401C195.239 32.5401 196.645 33.1887 197.618 34.3779C198.699 35.5671 199.131 37.0805 199.131 38.8102V39.6751H190.591C190.807 40.4318 191.239 41.0804 191.888 41.5129C192.645 41.9453 193.51 42.1615 194.591 42.1615C195.888 42.1615 197.185 41.8372 198.374 41.0804V43.7831C197.401 44.6479 195.888 45.0803 193.942 45.0803ZM190.699 37.6211H195.888C195.888 36.9724 195.564 36.3238 195.131 35.8914C194.699 35.459 194.05 35.2427 193.402 35.2427C192.645 35.2427 191.996 35.459 191.564 35.8914C191.023 36.3238 190.699 36.8643 190.699 37.6211Z" fill="white"/>
<path d="M208.969 32.5401C210.59 32.5401 211.888 33.1887 212.969 34.3779C214.05 35.5671 214.59 37.0805 214.59 38.8102C214.59 40.5399 214.05 42.0534 212.969 43.2426C211.888 44.4317 210.59 44.9722 208.969 44.9722C207.347 44.9722 206.05 44.4317 205.077 43.2426V49.4046H201.726V32.8644H205.077V34.2698C205.942 33.1887 207.239 32.5401 208.969 32.5401ZM207.996 35.4589C207.347 35.4589 206.807 35.6752 206.266 35.9995C205.725 36.3238 205.293 36.7562 205.077 37.2967V40.4318C205.401 40.9723 205.725 41.4048 206.266 41.7291C206.807 42.0534 207.347 42.1615 207.996 42.1615C208.969 42.1615 209.725 41.8372 210.266 41.1885C210.915 40.5399 211.131 39.7832 211.131 38.8102C211.131 37.8373 210.806 37.0805 210.266 36.4319C209.725 35.7833 208.969 35.4589 207.996 35.4589Z" fill="white"/>
<path d="M220.427 44.7555H217.076V32.8639H220.427V37.2962H225.292V32.8639H228.643V44.7555H225.292V40.107H220.427V44.7555Z" fill="white"/>
<path d="M247.346 44.7555H243.995V32.8639H247.346V44.7555ZM237.833 44.7555H231.887V32.8639H235.238V36.3233H237.616C239.13 36.3233 240.319 36.7557 241.184 37.5124C242.049 38.2692 242.481 39.2421 242.481 40.5394C242.481 41.7285 242.049 42.7015 241.292 43.5663C240.535 44.3231 239.346 44.7555 237.833 44.7555ZM235.238 38.8097V42.161H237.184C237.833 42.161 238.373 42.0529 238.697 41.7285C239.022 41.4042 239.238 41.0799 239.238 40.5394C239.238 39.9989 239.022 39.5664 238.697 39.3502C238.373 39.0259 237.833 38.9178 237.184 38.9178H235.238V38.8097Z" fill="white"/>
<path d="M256.427 45.0803C254.59 45.0803 252.968 44.5398 251.779 43.3507C250.59 42.1615 249.833 40.648 249.833 38.8102C249.833 37.0805 250.374 35.5671 251.563 34.3779C252.752 33.1887 254.157 32.5401 255.995 32.5401C257.725 32.5401 259.13 33.1887 260.103 34.3779C261.184 35.5671 261.617 37.0805 261.617 38.8102V39.6751H253.076C253.292 40.4318 253.725 41.0804 254.373 41.5129C255.13 41.9453 255.995 42.1615 257.076 42.1615C258.373 42.1615 259.671 41.8372 260.86 41.0804V43.7831C259.887 44.6479 258.373 45.0803 256.427 45.0803ZM253.184 37.6211H258.373C258.373 36.9724 258.049 36.3238 257.617 35.8914C257.184 35.459 256.536 35.2427 255.887 35.2427C255.13 35.2427 254.482 35.459 254.049 35.8914C253.509 36.3238 253.184 36.8643 253.184 37.6211Z" fill="white"/>
<path d="M127.997 72.8635H110.809V60.9719H114.16V70.0527H117.727V60.9719H120.971V70.0527H124.646V60.9719H127.889V72.8635H127.997Z" fill="white"/>
<path d="M134.592 72.8635H131.24V60.9719H134.592V65.2961L138.7 60.9719H142.808L137.618 66.3771L143.564 72.8635H139.24L134.592 67.7825V72.8635Z" fill="white"/>
<path d="M147.132 66.9172C147.132 67.8901 147.456 68.6468 148.105 69.2955C148.753 69.9441 149.51 70.2684 150.483 70.2684C151.456 70.2684 152.213 69.9441 152.861 69.2955C153.51 68.6468 153.834 67.8901 153.834 66.9172C153.834 65.9442 153.51 65.1875 152.861 64.5388C152.213 63.8902 151.456 63.5659 150.483 63.5659C149.51 63.5659 148.753 63.8902 148.105 64.5388C147.456 65.1875 147.132 65.9442 147.132 66.9172ZM143.889 66.9172C143.889 65.1875 144.537 63.674 145.726 62.4848C146.916 61.2957 148.537 60.647 150.483 60.647C152.429 60.647 153.942 61.2957 155.24 62.4848C156.429 63.674 157.078 65.1875 157.078 66.9172C157.078 68.6469 156.429 70.1603 155.24 71.3495C154.051 72.5387 152.429 73.1873 150.483 73.1873C148.537 73.1873 147.024 72.5387 145.726 71.3495C144.429 70.1603 143.889 68.6469 143.889 66.9172Z" fill="white"/>
<path d="M167.564 63.7825H163.888V65.4041C163.78 67.1337 163.672 68.5391 163.348 69.6202C163.024 70.7012 162.591 71.458 161.943 72.1066C161.294 72.6471 160.429 72.9714 159.348 72.9714C158.808 72.9714 158.375 72.8633 158.051 72.7552V70.0526C158.267 70.1607 158.483 70.1607 158.699 70.1607C159.456 70.1607 159.997 69.6202 160.213 68.6472C160.429 67.7824 160.537 66.377 160.645 64.5392L160.753 61.0798H171.023V72.9714H167.564V63.7825Z" fill="white"/>
<path d="M189.618 72.8635H186.267V60.9719H189.618V72.8635ZM180.105 72.8635H174.159V60.9719H177.51V64.4312H179.889C181.402 64.4312 182.591 64.8637 183.456 65.6204C184.321 66.3771 184.754 67.3501 184.754 68.6474C184.754 69.8365 184.321 70.8095 183.564 71.6743C182.808 72.4311 181.618 72.8635 180.105 72.8635ZM177.51 66.9177V70.2689H179.456C180.105 70.2689 180.645 70.1608 180.97 69.8365C181.294 69.5122 181.51 69.1879 181.51 68.6474C181.51 68.1068 181.294 67.6744 180.97 67.4582C180.645 67.1339 180.105 67.0258 179.456 67.0258H177.51V66.9177Z" fill="white"/>
<path d="M21.0806 75.0245C23.7673 75.0245 25.9453 72.8465 25.9453 70.1598C25.9453 67.4731 23.7673 65.295 21.0806 65.295C18.3938 65.295 16.2158 67.4731 16.2158 70.1598C16.2158 72.8465 18.3938 75.0245 21.0806 75.0245Z" fill="white" fill-opacity="0.4"/>
<path d="M37.2964 10.1618C39.9831 10.1618 42.1611 7.98373 42.1611 5.297C42.1611 2.61027 39.9831 0.432251 37.2964 0.432251C34.6097 0.432251 32.4316 2.61027 32.4316 5.297C32.4316 7.98373 34.6097 10.1618 37.2964 10.1618Z" fill="white" fill-opacity="0.4"/>
<path d="M37.2964 26.3771C39.9831 26.3771 42.1611 24.1991 42.1611 21.5123C42.1611 18.8256 39.9831 16.6476 37.2964 16.6476C34.6097 16.6476 32.4316 18.8256 32.4316 21.5123C32.4316 24.1991 34.6097 26.3771 37.2964 26.3771Z" fill="white" fill-opacity="0.4"/>
<path d="M37.2964 58.8092C39.9831 58.8092 42.1611 56.6312 42.1611 53.9445C42.1611 51.2577 39.9831 49.0797 37.2964 49.0797C34.6097 49.0797 32.4316 51.2577 32.4316 53.9445C32.4316 56.6312 34.6097 58.8092 37.2964 58.8092Z" fill="white" fill-opacity="0.4"/>
<path d="M37.2964 75.0245C39.9831 75.0245 42.1611 72.8465 42.1611 70.1598C42.1611 67.4731 39.9831 65.295 37.2964 65.295C34.6097 65.295 32.4316 67.4731 32.4316 70.1598C32.4316 72.8465 34.6097 75.0245 37.2964 75.0245Z" fill="white" fill-opacity="0.4"/>
<path d="M53.5122 10.1618C56.1989 10.1618 58.377 7.98373 58.377 5.297C58.377 2.61027 56.1989 0.432251 53.5122 0.432251C50.8255 0.432251 48.6475 2.61027 48.6475 5.297C48.6475 7.98373 50.8255 10.1618 53.5122 10.1618Z" fill="white" fill-opacity="0.4"/>
<path d="M4.86475 10.1618C7.55148 10.1618 9.7295 7.98379 9.7295 5.29706C9.7295 2.61033 7.55148 0.432312 4.86475 0.432312C2.17802 0.432312 0 2.61033 0 5.29706C0 7.98379 2.17802 10.1618 4.86475 10.1618Z" fill="white"/>
<path d="M4.86475 26.3771C7.55148 26.3771 9.7295 24.1991 9.7295 21.5123C9.7295 18.8256 7.55148 16.6476 4.86475 16.6476C2.17802 16.6476 0 18.8256 0 21.5123C0 24.1991 2.17802 26.3771 4.86475 26.3771Z" fill="white"/>
<path d="M4.86475 42.5933C7.55148 42.5933 9.7295 40.4153 9.7295 37.7286C9.7295 35.0419 7.55148 32.8638 4.86475 32.8638C2.17802 32.8638 0 35.0419 0 37.7286C0 40.4153 2.17802 42.5933 4.86475 42.5933Z" fill="white"/>
<path d="M4.86475 58.8092C7.55148 58.8092 9.7295 56.6312 9.7295 53.9445C9.7295 51.2577 7.55148 49.0797 4.86475 49.0797C2.17802 49.0797 0 51.2577 0 53.9445C0 56.6312 2.17802 58.8092 4.86475 58.8092Z" fill="white"/>
<path d="M4.86475 75.0245C7.55148 75.0245 9.7295 72.8465 9.7295 70.1598C9.7295 67.4731 7.55148 65.295 4.86475 65.295C2.17802 65.295 0 67.4731 0 70.1598C0 72.8465 2.17802 75.0245 4.86475 75.0245Z" fill="white"/>
<path d="M21.0806 10.1618C23.7673 10.1618 25.9453 7.98373 25.9453 5.297C25.9453 2.61027 23.7673 0.432251 21.0806 0.432251C18.3938 0.432251 16.2158 2.61027 16.2158 5.297C16.2158 7.98373 18.3938 10.1618 21.0806 10.1618Z" fill="white"/>
<path d="M21.0806 26.3771C23.7673 26.3771 25.9453 24.1991 25.9453 21.5123C25.9453 18.8256 23.7673 16.6476 21.0806 16.6476C18.3938 16.6476 16.2158 18.8256 16.2158 21.5123C16.2158 24.1991 18.3938 26.3771 21.0806 26.3771Z" fill="white"/>
<path d="M21.0806 42.5933C23.7673 42.5933 25.9453 40.4153 25.9453 37.7286C25.9453 35.0419 23.7673 32.8638 21.0806 32.8638C18.3938 32.8638 16.2158 35.0419 16.2158 37.7286C16.2158 40.4153 18.3938 42.5933 21.0806 42.5933Z" fill="white"/>
<path d="M21.0806 58.8092C23.7673 58.8092 25.9453 56.6312 25.9453 53.9445C25.9453 51.2577 23.7673 49.0797 21.0806 49.0797C18.3938 49.0797 16.2158 51.2577 16.2158 53.9445C16.2158 56.6312 18.3938 58.8092 21.0806 58.8092Z" fill="white"/>
<path d="M37.2964 42.5933C39.9831 42.5933 42.1611 40.4153 42.1611 37.7286C42.1611 35.0419 39.9831 32.8638 37.2964 32.8638C34.6097 32.8638 32.4316 35.0419 32.4316 37.7286C32.4316 40.4153 34.6097 42.5933 37.2964 42.5933Z" fill="white"/>
<path d="M53.5122 26.3771C56.1989 26.3771 58.377 24.1991 58.377 21.5123C58.377 18.8256 56.1989 16.6476 53.5122 16.6476C50.8255 16.6476 48.6475 18.8256 48.6475 21.5123C48.6475 24.1991 50.8255 26.3771 53.5122 26.3771Z" fill="white"/>
<path d="M53.5122 42.5933C56.1989 42.5933 58.377 40.4153 58.377 37.7286C58.377 35.0419 56.1989 32.8638 53.5122 32.8638C50.8255 32.8638 48.6475 35.0419 48.6475 37.7286C48.6475 40.4153 50.8255 42.5933 53.5122 42.5933Z" fill="white"/>
<path d="M53.5122 58.8092C56.1989 58.8092 58.377 56.6312 58.377 53.9445C58.377 51.2577 56.1989 49.0797 53.5122 49.0797C50.8255 49.0797 48.6475 51.2577 48.6475 53.9445C48.6475 56.6312 50.8255 58.8092 53.5122 58.8092Z" fill="white"/>
<path d="M53.5122 75.0245C56.1989 75.0245 58.377 72.8465 58.377 70.1598C58.377 67.4731 56.1989 65.295 53.5122 65.295C50.8255 65.295 48.6475 67.4731 48.6475 70.1598C48.6475 72.8465 50.8255 75.0245 53.5122 75.0245Z" fill="white"/>
<path d="M69.728 10.1618C72.4148 10.1618 74.5928 7.98373 74.5928 5.297C74.5928 2.61027 72.4148 0.432251 69.728 0.432251C67.0413 0.432251 64.8633 2.61027 64.8633 5.297C64.8633 7.98373 67.0413 10.1618 69.728 10.1618Z" fill="white"/>
<path d="M69.728 26.3771C72.4148 26.3771 74.5928 24.1991 74.5928 21.5123C74.5928 18.8256 72.4148 16.6476 69.728 16.6476C67.0413 16.6476 64.8633 18.8256 64.8633 21.5123C64.8633 24.1991 67.0413 26.3771 69.728 26.3771Z" fill="white"/>
<path d="M69.728 42.5933C72.4148 42.5933 74.5928 40.4153 74.5928 37.7286C74.5928 35.0419 72.4148 32.8638 69.728 32.8638C67.0413 32.8638 64.8633 35.0419 64.8633 37.7286C64.8633 40.4153 67.0413 42.5933 69.728 42.5933Z" fill="white"/>
<path d="M69.728 58.8092C72.4148 58.8092 74.5928 56.6312 74.5928 53.9445C74.5928 51.2577 72.4148 49.0797 69.728 49.0797C67.0413 49.0797 64.8633 51.2577 64.8633 53.9445C64.8633 56.6312 67.0413 58.8092 69.728 58.8092Z" fill="white"/>
<path d="M69.728 75.0245C72.4148 75.0245 74.5928 72.8465 74.5928 70.1598C74.5928 67.4731 72.4148 65.295 69.728 65.295C67.0413 65.295 64.8633 67.4731 64.8633 70.1598C64.8633 72.8465 67.0413 75.0245 69.728 75.0245Z" fill="white"/>
</svg>
